<?xml version="1.0" encoding="utf-8"?>
<!-- Generator: Adobe Illustrator 25.2.2, SVG Export Plug-In . SVG Version: 6.00 Build 0)  -->
<svg version="1.1" id="Layer_1" xmlns="http://www.w3.org/2000/svg" xmlns:xlink="http://www.w3.org/1999/xlink" x="0px" y="0px"
	 viewBox="0 0 595.28 225" style="enable-background:new 0 0 595.28 225;" xml:space="preserve">
<g>
	<path d="M53.12,62.35c-1.36-0.35-1.81-1.1-1.46-2.46l6.81-26.78l-8.02-2.04c-1.36-0.35-1.81-1.1-1.46-2.46l1.68-6.6
		c0.35-1.36,1.1-1.81,2.46-1.46l28.79,7.33c1.36,0.35,1.81,1.1,1.46,2.46l-1.68,6.6c-0.35,1.36-1.1,1.81-2.46,1.46l-8.02-2.04
		l-6.81,26.78c-0.35,1.36-1.1,1.81-2.46,1.46L53.12,62.35z"/>
	<path d="M81.15,69.48c-1.36-0.35-1.81-1.1-1.46-2.46l8.99-35.34c0.35-1.36,1.1-1.81,2.46-1.46l8.45,2.15
		c1.36,0.35,1.81,1.1,1.46,2.46l-3.01,11.83l9.11,2.32l3.01-11.83c0.35-1.36,1.1-1.81,2.46-1.46l8.45,2.15
		c1.36,0.35,1.81,1.1,1.46,2.46l-8.99,35.34c-0.35,1.36-1.1,1.81-2.46,1.46l-8.45-2.15c-1.36-0.35-1.81-1.1-1.46-2.46l3.08-12.11
		l-9.11-2.32l-3.08,12.11c-0.35,1.36-1.1,1.81-2.46,1.46L81.15,69.48z"/>
	<path d="M120.21,77.33l1.65-6.49c0.35-1.36,1.1-1.81,2.46-1.46l5.4,1.37l4.66-18.32l-5.4-1.37c-1.36-0.35-1.81-1.1-1.46-2.46
		l1.68-6.6c0.35-1.36,1.1-1.81,2.46-1.46l23.23,5.91c1.36,0.35,1.81,1.1,1.46,2.46l-1.68,6.6c-0.35,1.36-1.1,1.81-2.46,1.46
		l-5.29-1.35l-4.66,18.32l5.29,1.35c1.36,0.35,1.81,1.1,1.46,2.46l-1.65,6.49c-0.35,1.36-1.1,1.81-2.46,1.46l-23.23-5.91
		C120.31,79.45,119.86,78.69,120.21,77.33z"/>
	<path d="M154.55,88.16c-1.36-0.35-1.81-1.1-1.46-2.46l1.62-6.38c0.35-1.36,1.1-1.81,2.46-1.46l14.67,3.73
		c0.93,0.24,1.6-0.35,1.82-1.22c0.32-1.25-0.05-1.87-0.95-2.21l-7.89-3.23c-4.93-2.07-7.7-5.1-6.15-11.21l1.46-5.73
		c1.58-6.22,6.64-8.53,13.73-6.73l15.27,3.88c1.36,0.35,1.81,1.1,1.46,2.46l-1.65,6.49c-0.35,1.36-1.1,1.81-2.46,1.46l-12.71-3.23
		c-0.93-0.24-1.64,0.28-1.89,1.26s0.13,1.77,1.03,2.12l7.85,3.16c4.93,2.07,7.76,5.11,6.2,11.22l-1.46,5.73
		c-1.58,6.22-6.7,8.52-13.73,6.73L154.55,88.16z"/>
	<path d="M200.92,97.87l1.65-6.49c0.35-1.36,1.1-1.81,2.46-1.46l5.4,1.37l4.66-18.32l-5.4-1.37c-1.36-0.35-1.81-1.1-1.46-2.46
		l1.68-6.6c0.35-1.36,1.1-1.81,2.46-1.46l23.23,5.91c1.36,0.35,1.81,1.1,1.46,2.46l-1.68,6.6c-0.35,1.36-1.1,1.81-2.46,1.46
		l-5.29-1.35l-4.66,18.32l5.29,1.35c1.36,0.35,1.81,1.1,1.46,2.46l-1.65,6.49c-0.35,1.36-1.1,1.81-2.46,1.46l-23.23-5.91
		C201.02,99.98,200.57,99.23,200.92,97.87z"/>
	<path d="M235.26,108.7c-1.36-0.35-1.81-1.1-1.46-2.46l1.62-6.38c0.35-1.36,1.1-1.81,2.46-1.46l14.67,3.73
		c0.93,0.24,1.6-0.35,1.82-1.22c0.32-1.25-0.05-1.87-0.95-2.21l-7.89-3.23c-4.93-2.07-7.7-5.1-6.15-11.2l1.46-5.73
		c1.58-6.22,6.64-8.53,13.73-6.73l15.27,3.89c1.36,0.35,1.81,1.1,1.46,2.46l-1.65,6.49c-0.35,1.36-1.1,1.81-2.46,1.46l-12.71-3.23
		c-0.93-0.24-1.64,0.28-1.89,1.26c-0.25,0.98,0.13,1.78,1.03,2.12l7.85,3.16c4.93,2.07,7.76,5.11,6.2,11.22l-1.46,5.73
		c-1.58,6.22-6.7,8.52-13.73,6.73L235.26,108.7z"/>
	<path d="M291.16,122.92l-8.02-2.04c-1.36-0.35-1.81-1.1-1.46-2.46l3.66-14.4c0.55-2.18,1.9-4.74,4.35-8.18l7.9-11.17
		c0.75-1.14,1.77-1.47,3.24-1.09l14.67,3.73c1.42,0.36,2.15,1.13,2.27,2.49l1.59,13.59c0.5,4.19,0.46,7.08-0.09,9.27l-3.66,14.4
		c-0.35,1.36-1.1,1.81-2.46,1.46l-8.24-2.09c-1.47-0.38-1.97-1.14-1.63-2.5l1.94-7.64l-9.65-2.46l-1.94,7.64
		C293.28,122.82,292.52,123.27,291.16,122.92z M298.64,104.04l8.56,2.18l-0.45-8.94c-0.11-0.72-0.36-1.08-0.8-1.19l-1.36-0.35
		c-0.44-0.11-0.83,0.08-1.27,0.66L298.64,104.04z"/>
	<path d="M336.04,134.34c-1.36-0.35-1.81-1.1-1.46-2.46l8.99-35.34c0.35-1.36,1.1-1.81,2.46-1.46l24.32,6.19
		c1.36,0.35,1.81,1.1,1.46,2.46l-1.65,6.49c-0.35,1.36-1.1,1.81-2.46,1.46l-13.91-3.54l-1.44,5.67l9.49,2.42
		c1.36,0.35,1.81,1.1,1.46,2.46l-1.67,6.54c-0.35,1.36-1.1,1.81-2.46,1.46l-9.49-2.41l-2.73,10.74c-0.35,1.36-1.1,1.81-2.46,1.46
		L336.04,134.34z"/>
	<path d="M367.41,140.23l1.65-6.49c0.35-1.36,1.1-1.81,2.46-1.46l5.4,1.37l4.66-18.32l-5.4-1.37c-1.36-0.35-1.81-1.1-1.46-2.46
		l1.68-6.6c0.35-1.36,1.1-1.81,2.46-1.46l23.23,5.91c1.36,0.35,1.81,1.1,1.46,2.46l-1.68,6.6c-0.35,1.36-1.1,1.81-2.46,1.46
		l-5.29-1.35l-4.66,18.32l5.29,1.35c1.36,0.35,1.81,1.1,1.46,2.46l-1.65,6.49c-0.35,1.36-1.1,1.81-2.46,1.46l-23.23-5.91
		C367.51,142.35,367.06,141.59,367.41,140.23z"/>
	<path d="M413.59,154.07c-9.16-2.33-12.51-6.96-10.59-14.54l4.33-17.02c1.93-7.58,7.08-10.04,16.25-7.71l13.63,3.47
		c1.36,0.35,1.81,1.1,1.46,2.46l-1.68,6.6c-0.35,1.36-1.1,1.81-2.46,1.46l-11.34-2.89c-2.29-0.58-3.55,0.03-4.02,1.88l-3.32,13.03
		c-0.47,1.85,0.14,2.88,1.83,3.31l5.29,1.35l2.16-8.51c0.35-1.36,1.1-1.81,2.46-1.46l8.45,2.15c1.36,0.35,1.81,1.1,1.46,2.46
		l-4.29,16.85c-0.35,1.36-1.1,1.81-2.46,1.46L413.59,154.07z"/>
	<path d="M455.75,165.67c-13.53-3.44-15.71-8.76-14.02-15.41l6.87-27c0.35-1.36,1.1-1.81,2.46-1.46l8.56,2.18
		c1.36,0.35,1.81,1.1,1.46,2.46l-6.33,24.87c-0.37,1.47,0,2.73,3.82,3.7c3.87,0.99,4.8,0.06,5.18-1.41l6.33-24.87
		c0.35-1.36,1.04-1.82,2.46-1.46l8.29,2.11c1.36,0.35,1.81,1.1,1.46,2.46l-6.87,27C473.74,165.49,469.28,169.11,455.75,165.67z"/>
	<path d="M482.03,171.49c-1.36-0.35-1.81-1.1-1.46-2.46l8.99-35.34c0.35-1.36,1.1-1.81,2.46-1.46l18.16,4.62
		c8.18,2.08,9.8,6.44,8.43,11.84l-0.64,2.51c-0.78,3.05-2.1,5.04-4.64,5.44c3.87,1.45,5.75,5,4.59,9.59l-2.94,11.56
		c-0.35,1.36-1.1,1.81-2.46,1.46l-8.45-2.15c-1.36-0.35-1.81-1.1-1.46-2.46l2.12-8.34c0.42-1.64,0.05-2.48-1.48-2.87l-7.64-1.94
		l-2.72,10.69c-0.35,1.36-1.1,1.81-2.46,1.46L482.03,171.49z M498.1,151.66l4.09,1.04c1.91,0.49,2.68-0.48,3.05-1.95l0.47-1.85
		c0.38-1.47,0.16-2.69-1.75-3.17l-4.09-1.04L498.1,151.66z"/>
	<path d="M522.54,181.8c-1.36-0.35-1.81-1.1-1.46-2.46l8.99-35.34c0.35-1.36,1.1-1.81,2.46-1.46l25.3,6.44
		c1.36,0.35,1.81,1.1,1.46,2.46l-1.62,6.38c-0.35,1.36-1.1,1.81-2.46,1.46l-15.05-3.83l-1.07,4.2l10.63,2.71
		c1.36,0.35,1.81,1.1,1.46,2.46l-1.48,5.83c-0.35,1.36-1.1,1.81-2.46,1.46l-10.63-2.71l-1.19,4.69l15.05,3.83
		c1.36,0.35,1.81,1.1,1.46,2.46l-1.62,6.38c-0.35,1.36-1.1,1.81-2.46,1.46L522.54,181.8z"/>
</g>
</svg>
